<svg width="197" height="314" viewBox="0 0 197 314" fill="none" xmlns="http://www.w3.org/2000/svg">
<g opacity="0.2">
<path d="M94.4609 286.772L79.0615 277.973L64.542 285.892L79.5015 295.132L94.4609 286.772Z" fill="url(#paint0_linear_138_2543)"/>
<path d="M94.4609 286.772V304.372L79.5015 313.171V295.132L94.4609 286.772Z" fill="url(#paint1_linear_138_2543)"/>
<path d="M79.5 295.132L64.5406 285.893V304.02L79.5 313.172V295.132Z" fill="url(#paint2_linear_138_2543)"/>
</g>
<g opacity="0.4">
<path d="M94.4609 260.966L79.0615 252.166L64.542 260.086L79.5015 269.325L94.4609 260.966Z" fill="url(#paint3_linear_138_2543)"/>
<path d="M94.4609 260.966V278.565L79.5015 287.365V269.326L94.4609 260.966Z" fill="url(#paint4_linear_138_2543)"/>
<path d="M79.5 269.326L64.5406 260.086V278.213L79.5 287.365V269.326Z" fill="url(#paint5_linear_138_2543)"/>
</g>
<g opacity="0.6">
<path d="M94.4609 232.947L79.0615 224.147L64.542 232.067L79.5015 241.307L94.4609 232.947Z" fill="url(#paint6_linear_138_2543)"/>
<path d="M94.4609 232.947V250.547L79.5015 259.346V241.307L94.4609 232.947Z" fill="url(#paint7_linear_138_2543)"/>
<path d="M79.5 241.307L64.5406 232.067V250.195L79.5 259.346V241.307Z" fill="url(#paint8_linear_138_2543)"/>
</g>
<g opacity="0.8">
<path d="M94.4609 207.14L79.0615 198.341L64.542 206.261L79.5015 215.5L94.4609 207.14Z" fill="url(#paint9_linear_138_2543)"/>
<path d="M94.4609 207.141V224.74L79.5015 233.54V215.5L94.4609 207.141Z" fill="url(#paint10_linear_138_2543)"/>
<path d="M79.5 215.5L64.5406 206.261V224.388L79.5 233.54V215.5Z" fill="url(#paint11_linear_138_2543)"/>
</g>
<path fill-rule="evenodd" clip-rule="evenodd" d="M196.139 151.583L196.139 139.355C196.139 139.355 79.7629 87.1151 78.8934 87.6119L-36.926 140.532V151.851C-36.926 151.851 -36.926 152.98 -35.7973 153.544L77.9619 219.148C78.8313 219.645 80.1976 219.645 81.067 219.148L195.456 153.259C196.326 152.763 196.139 151.583 196.139 151.583Z" fill="#DBDDDE"/>
<path fill-rule="evenodd" clip-rule="evenodd" d="M195.591 138.555L80.947 73.4615C80.0776 72.9647 78.7114 72.9647 77.842 73.4615L-36.3474 139.684C-37.2168 140.181 -37.2168 140.988 -36.3474 141.485L76.8484 206.543C77.7178 207.04 79.084 207.04 79.9534 206.543L195.529 140.356C196.398 139.859 196.46 139.052 195.591 138.555Z" fill="#F3F3F3"/>
<path fill-rule="evenodd" clip-rule="evenodd" d="M133.245 138.107L80.6161 107.827C80.2239 107.591 79.5965 107.591 79.1259 107.827L26.1833 138.343C25.7911 138.579 25.7911 138.972 26.1833 139.208L78.7337 169.409C79.1259 169.645 79.7533 169.645 80.2239 169.409L133.245 138.893C133.637 138.657 133.637 138.343 133.245 138.107Z" fill="#DBDDDE"/>
<path fill-rule="evenodd" clip-rule="evenodd" d="M122.956 144.228L80.4434 120.316C80.0928 120.141 79.4792 120.141 79.1286 120.316L35.7397 144.053C35.389 144.228 35.389 144.578 35.7397 144.841L78.6903 169.454C79.0409 169.629 79.6545 169.629 80.0051 169.454L122.956 145.016C123.306 144.754 123.306 144.403 122.956 144.228Z" fill="#F9F9FE"/>
<path d="M49.3555 77.0985L31.8694 67.1064L15.3824 76.0993L32.369 86.591L49.3555 77.0985Z" fill="white"/>
<path d="M49.3555 77.0986V111.072L32.369 121.064V86.5911L49.3555 77.0986Z" fill="#F7F7F7"/>
<path d="M32.3691 86.5913L15.3826 76.0996V110.672L32.3691 121.064V86.5913Z" fill="#E9E9EB"/>
<path fill-rule="evenodd" clip-rule="evenodd" d="M41.547 86.33C40.3519 85.9714 38.858 86.9275 38.2006 88.541C37.5433 90.1544 38.0214 91.7081 39.2165 92.1264C40.4116 92.4849 41.9056 91.5288 42.5629 89.9154C43.2202 88.302 42.7422 86.7483 41.547 86.33Z" fill="#17CE8A"/>
<path fill-rule="evenodd" clip-rule="evenodd" d="M40.9467 86.3291C40.1109 86.3291 38.0215 88.5258 38.0215 90.508C38.0215 90.7912 39.2751 92.1796 39.2751 92.1796L67.3897 119.06C67.3897 119.06 78.3929 119.627 85.1368 107.734C90.6029 98.1059 86.4856 89.0445 83.717 89.3276L42.2004 86.747C42.2004 86.747 41.7825 86.3291 40.9467 86.3291Z" fill="url(#paint12_linear_138_2543)"/>
<g opacity="0.9">
<path d="M94.4609 149.63L79.0615 140.83L64.542 148.75L79.5015 157.989L94.4609 149.63Z" fill="url(#paint13_linear_138_2543)"/>
<path d="M94.4609 149.63V161.331L79.5015 170.13V157.99L94.4609 149.63Z" fill="url(#paint14_linear_138_2543)"/>
<path d="M79.5 157.99L64.5406 148.75V160.979L79.5 170.13V157.99Z" fill="url(#paint15_linear_138_2543)"/>
</g>
<path d="M94.4609 123.823L79.0615 115.023L64.542 122.943L79.5015 132.183L94.4609 123.823Z" fill="url(#paint16_linear_138_2543)"/>
<path d="M94.4609 123.823V141.423L79.5015 150.222V132.183L94.4609 123.823Z" fill="url(#paint17_linear_138_2543)"/>
<path d="M79.5 132.183L64.5406 122.943V141.071L79.5 150.222V132.183Z" fill="url(#paint18_linear_138_2543)"/>
<path d="M94.4492 95.8046L79.0498 87.0049L64.5303 94.9246L79.4898 104.164L94.4492 95.8046Z" fill="#F67C7C"/>
<path d="M94.4492 95.8047V113.404L79.4898 122.204V104.164L94.4492 95.8047Z" fill="#DB585A"/>
<path d="M79.4883 104.164L64.5288 94.9248V113.052L79.4883 122.204V104.164Z" fill="#FF6568"/>
<path d="M94.4609 68.5233L79.0615 59.7236L64.542 67.6433L79.5015 76.883L94.4609 68.5233Z" fill="#42E7AA"/>
<path d="M94.4609 68.5234V86.1228L79.5015 94.9225V76.8831L94.4609 68.5234Z" fill="#16A568"/>
<path d="M79.5 76.8832L64.5406 67.6436V85.7709L79.5 94.9225V76.8832Z" fill="#17CE8A"/>
<path d="M94.4609 39.0301L79.0615 30.2305L64.542 38.1502L79.5015 47.3898L94.4609 39.0301Z" fill="#FFEE50"/>
<path d="M94.4609 39.0303V56.6296L79.5015 65.4293V47.39L94.4609 39.0303Z" fill="#CCBA11"/>
<path d="M79.5 47.39L64.5406 38.1504V56.2777L79.5 65.4294V47.39Z" fill="#FFD215"/>
<path d="M94.4609 8.79968L79.0615 0L64.542 7.91971L79.5015 17.1594L94.4609 8.79968Z" fill="#06AFFF"/>
<path d="M94.4609 8.7998V26.3992L79.5015 35.1988V17.1595L94.4609 8.7998Z" fill="#2F80ED"/>
<path d="M79.5 17.1596L64.5406 7.91992V26.0472L79.5 35.1989V17.1596Z" fill="#3C8AFE"/>
<defs>
<linearGradient id="paint0_linear_138_2543" x1="79.5008" y1="277.973" x2="79.5008" y2="295.135" gradientUnits="userSpaceOnUse">
<stop stop-color="#E8E8E8"/>
<stop offset="1" stop-color="#727272"/>
</linearGradient>
<linearGradient id="paint1_linear_138_2543" x1="86.9809" y1="286.772" x2="86.9809" y2="313.175" gradientUnits="userSpaceOnUse">
<stop stop-color="#E8E8E8"/>
<stop offset="1" stop-color="#727272"/>
</linearGradient>
<linearGradient id="paint2_linear_138_2543" x1="72.0199" y1="285.893" x2="72.0199" y2="313.176" gradientUnits="userSpaceOnUse">
<stop stop-color="#E8E8E8"/>
<stop offset="1" stop-color="#727272"/>
</linearGradient>
<linearGradient id="paint3_linear_138_2543" x1="79.5008" y1="252.166" x2="79.5008" y2="269.328" gradientUnits="userSpaceOnUse">
<stop stop-color="#E8E8E8"/>
<stop offset="1" stop-color="#727272"/>
</linearGradient>
<linearGradient id="paint4_linear_138_2543" x1="86.9809" y1="260.966" x2="86.9809" y2="287.369" gradientUnits="userSpaceOnUse">
<stop stop-color="#E8E8E8"/>
<stop offset="1" stop-color="#727272"/>
</linearGradient>
<linearGradient id="paint5_linear_138_2543" x1="72.0199" y1="260.086" x2="72.0199" y2="287.369" gradientUnits="userSpaceOnUse">
<stop stop-color="#E8E8E8"/>
<stop offset="1" stop-color="#727272"/>
</linearGradient>
<linearGradient id="paint6_linear_138_2543" x1="79.5008" y1="224.147" x2="79.5008" y2="241.309" gradientUnits="userSpaceOnUse">
<stop stop-color="#E8E8E8"/>
<stop offset="1" stop-color="#727272"/>
</linearGradient>
<linearGradient id="paint7_linear_138_2543" x1="86.9809" y1="232.947" x2="86.9809" y2="259.35" gradientUnits="userSpaceOnUse">
<stop stop-color="#E8E8E8"/>
<stop offset="1" stop-color="#727272"/>
</linearGradient>
<linearGradient id="paint8_linear_138_2543" x1="72.0199" y1="232.067" x2="72.0199" y2="259.35" gradientUnits="userSpaceOnUse">
<stop stop-color="#E8E8E8"/>
<stop offset="1" stop-color="#727272"/>
</linearGradient>
<linearGradient id="paint9_linear_138_2543" x1="79.5008" y1="198.341" x2="79.5008" y2="215.503" gradientUnits="userSpaceOnUse">
<stop stop-color="#E8E8E8"/>
<stop offset="1" stop-color="#727272"/>
</linearGradient>
<linearGradient id="paint10_linear_138_2543" x1="86.9809" y1="207.141" x2="86.9809" y2="233.544" gradientUnits="userSpaceOnUse">
<stop stop-color="#E8E8E8"/>
<stop offset="1" stop-color="#727272"/>
</linearGradient>
<linearGradient id="paint11_linear_138_2543" x1="72.0199" y1="206.261" x2="72.0199" y2="233.544" gradientUnits="userSpaceOnUse">
<stop stop-color="#E8E8E8"/>
<stop offset="1" stop-color="#727272"/>
</linearGradient>
<linearGradient id="paint12_linear_138_2543" x1="37.7118" y1="86.091" x2="78.8382" y2="107.067" gradientUnits="userSpaceOnUse">
<stop stop-color="#17CE8A" stop-opacity="0.46"/>
<stop offset="1" stop-color="#17CE8A" stop-opacity="0"/>
</linearGradient>
<linearGradient id="paint13_linear_138_2543" x1="79.5008" y1="140.83" x2="79.5008" y2="157.992" gradientUnits="userSpaceOnUse">
<stop stop-color="#E8E8E8"/>
<stop offset="1" stop-color="#727272"/>
</linearGradient>
<linearGradient id="paint14_linear_138_2543" x1="86.9809" y1="149.63" x2="86.9809" y2="170.133" gradientUnits="userSpaceOnUse">
<stop stop-color="#E8E8E8"/>
<stop offset="1" stop-color="#727272"/>
</linearGradient>
<linearGradient id="paint15_linear_138_2543" x1="72.0199" y1="148.75" x2="72.0199" y2="170.134" gradientUnits="userSpaceOnUse">
<stop stop-color="#E8E8E8"/>
<stop offset="1" stop-color="#727272"/>
</linearGradient>
<linearGradient id="paint16_linear_138_2543" x1="79.5008" y1="115.023" x2="79.5008" y2="132.185" gradientUnits="userSpaceOnUse">
<stop stop-color="#E8E8E8"/>
<stop offset="1" stop-color="#727272"/>
</linearGradient>
<linearGradient id="paint17_linear_138_2543" x1="86.9809" y1="123.823" x2="86.9809" y2="150.226" gradientUnits="userSpaceOnUse">
<stop stop-color="#E8E8E8"/>
<stop offset="1" stop-color="#727272"/>
</linearGradient>
<linearGradient id="paint18_linear_138_2543" x1="72.0199" y1="122.943" x2="72.0199" y2="150.226" gradientUnits="userSpaceOnUse">
<stop stop-color="#E8E8E8"/>
<stop offset="1" stop-color="#727272"/>
</linearGradient>
</defs>
</svg>
